<?xml version="1.0" standalone="no"?>
<!DOCTYPE svg PUBLIC "-//W3C//DTD SVG 20010904//EN"
 "http://www.w3.org/TR/2001/REC-SVG-20010904/DTD/svg10.dtd">
<svg version="1.0" xmlns="http://www.w3.org/2000/svg"
 width="512.000000pt" height="512.000000pt" viewBox="0 0 512.000000 512.000000"
 preserveAspectRatio="xMidYMid meet">
<metadata>
Created by potrace 1.14, written by Peter Selinger 2001-2017
</metadata>
<g transform="translate(0.000000,512.000000) scale(0.100000,-0.100000)"
fill="#000000" stroke="none">
<path d="M380 5106 c-126 -35 -265 -143 -322 -252 -62 -115 -58 33 -58 -2294
0 -1371 4 -2140 10 -2168 29 -125 144 -275 256 -334 115 -62 -33 -58 2294 -58
1371 0 2140 4 2168 10 125 29 275 144 334 256 62 115 58 -33 58 2294 0 1371
-4 2140 -10 2168 -29 125 -144 275 -256 334 -115 62 34 58 -2299 57 -1666 0
-2140 -3 -2175 -13z m2847 -1353 c9 -36 9 -250 0 -285 l-7 -28 -128 0 -127 0
2 -827 c2 -456 0 -852 -3 -880 l-5 -53 -90 0 -90 0 8 -37 c9 -48 9 -249 0
-285 l-7 -28 -350 0 -349 0 -7 46 c-3 25 -4 104 -2 175 l5 129 -83 0 c-46 0
-86 5 -89 10 -11 18 -18 193 -11 263 l8 67 174 0 c157 0 175 -2 182 -17 9 -24
9 -271 -1 -305 l-7 -28 180 0 181 0 -6 48 c-7 50 -8 101 -7 310 0 72 0 152 0
177 0 25 0 104 0 175 0 172 0 193 0 345 0 209 0 233 0 370 -1 195 1 276 7 313
l6 32 -130 0 c-79 0 -132 4 -136 10 -11 18 -18 193 -11 263 l8 67 439 0 439 0
7 -27z"/>
</g>
</svg>
